<svg id="logo" class="h-16 flex-no-shrink fill-current" xmlns="http://www.w3.org/2000/svg" viewBox="0 0 47 21.95"><defs><style>.cls-1,.cls-2{fill:none;stroke-miterlimit:10;stroke-width:2px;}.cls-1{stroke:#09f;}.cls-2{stroke:#ff4e00;}.cls-3{fill:#cc3b06;}</style></defs><path id="schuss" class="cls-1" d="M46,16H2.5a1.5,1.5,0,0,1,0-3h42a1.5,1.5,0,0,0,0-3H2.5a1.5,1.5,0,0,1,0-3h42a1.5,1.5,0,0,0,0-3H1" transform="translate(0 0.02)"/><g id="kette"><path class="cls-2" d="M7,0" transform="translate(0 0.02)"/><path class="cls-2" d="M4,17.5a1.5,1.5,0,0,0,3,0" transform="translate(0 0.02)"/><path class="cls-2" d="M4,8" transform="translate(0 0.02)"/><line class="cls-2" x1="7" y1="3.02" x2="7" y2="0.02"/><line class="cls-2" x1="7" y1="9.02" x2="7" y2="5.02"/><line class="cls-2" x1="7" y1="15.02" x2="7" y2="11.02"/><path class="cls-2" d="M4,14v3.5a1.5,1.5,0,0,0,3,0V17" transform="translate(0 0.02)"/><line class="cls-2" x1="4" y1="8.02" x2="4" y2="12.02"/><polyline class="cls-2" points="13 17.02 13 17.52 13 20.02"/><line class="cls-2" x1="13" y1="11.02" x2="13" y2="15.02"/><line class="cls-2" x1="13" y1="5.02" x2="13" y2="9.02"/><path class="cls-2" d="M10,6V2.5a1.5,1.5,0,0,1,3,0V3" transform="translate(0 0.02)"/><path class="cls-2" d="M37,5V7.07h0A2.93,2.93,0,0,1,34.07,10H34v2" transform="translate(0 0.02)"/><path class="cls-2" d="M34,6V2.5a1.5,1.5,0,0,1,3,0V3" transform="translate(0 0.02)"/><path class="cls-2" d="M34,7" transform="translate(0 0.02)"/><path class="cls-2" d="M37,17v.5a1.5,1.5,0,0,1-3,0V14" transform="translate(0 0.02)"/><line class="cls-2" x1="37" y1="11.02" x2="37" y2="15.02"/><path class="cls-2" d="M19,7.07" transform="translate(0 0.02)"/><line class="cls-2" x1="19" y1="5.02" x2="19" y2="8.02"/><path class="cls-2" d="M16,6V2.5a1.5,1.5,0,0,1,3,0V3" transform="translate(0 0.02)"/><line class="cls-2" x1="16" y1="12.02" x2="16" y2="8.02"/><path class="cls-2" d="M19,17v.5a1.5,1.5,0,0,1-3,0V14" transform="translate(0 0.02)"/><line class="cls-2" x1="19" y1="11.02" x2="19" y2="15.02"/><path class="cls-2" d="M25,17v.5A1.5,1.5,0,0,1,23.5,19" transform="translate(0 0.02)"/><line class="cls-2" x1="25" y1="11.02" x2="25" y2="15.02"/><polyline class="cls-2" points="25 5.02 25 6.02 25 9.02"/><path class="cls-2" d="M22,6V2.48a1.5,1.5,0,0,1,3,0V3" transform="translate(0 0.02)"/><line class="cls-2" x1="22" y1="12.02" x2="22" y2="8.02"/><path class="cls-2" d="M25,21.93V20.5A1.5,1.5,0,0,0,23.5,19h0A1.5,1.5,0,0,1,22,17.5h0V14" transform="translate(0 0.02)"/><path class="cls-2" d="M43,17v.5a1.5,1.5,0,0,1-3,0V14" transform="translate(0 0.02)"/><path class="cls-2" d="M40,8v.39a3,3,0,0,0,1.34,2.5l.32.22A3,3,0,0,1,43,13.61V15" transform="translate(0 0.02)"/><path class="cls-2" d="M43,3V2.5a1.5,1.5,0,0,0-3,0V6" transform="translate(0 0.02)"/><line class="cls-2" x1="43" y1="8.02" x2="43" y2="5.02"/><line class="cls-2" x1="28" y1="6.02" x2="28" y2="0.02"/><line class="cls-2" x1="28" y1="12.02" x2="28" y2="8.02"/><path class="cls-2" d="M31,17v.5a1.5,1.5,0,0,1-3,0V14" transform="translate(0 0.02)"/><line class="cls-2" x1="31" y1="11.02" x2="31" y2="15.02"/><line class="cls-2" x1="31" y1="5.02" x2="31" y2="9.05"/><line class="cls-2" x1="31" y1="0.02" x2="31" y2="3.02"/><path class="cls-2" d="M10,12V10a3,3,0,0,1,3-3h0" transform="translate(0 0.02)"/><path class="cls-2" d="M13,17.5a1.5,1.5,0,0,1-3,0V14" transform="translate(0 0.02)"/><line class="cls-2" x1="34" y1="8.02" x2="34" y2="10.02"/></g><g id="schatten"><rect class="cls-3" x="3" y="14.02" width="2" height="0.5"/><rect class="cls-3" x="3" y="8.02" width="2" height="0.5"/><rect class="cls-3" x="6" y="5.02" width="2" height="0.5"/><rect class="cls-3" x="6" y="11.02" width="2" height="0.5"/><rect class="cls-3" x="12" y="11.02" width="2" height="0.5"/><rect class="cls-3" x="6" y="17.02" width="2" height="0.5"/><rect class="cls-3" x="12" y="17.02" width="2" height="0.5"/><rect class="cls-3" x="9" y="14.02" width="2" height="0.5"/><rect class="cls-3" x="12" y="5.02" width="2" height="0.5"/><rect class="cls-3" x="18" y="5.02" width="2" height="0.5"/><rect class="cls-3" x="18" y="11.02" width="2" height="0.5"/><rect class="cls-3" x="18" y="17.02" width="2" height="0.5"/><rect class="cls-3" x="15" y="14.02" width="2" height="0.5"/><rect class="cls-3" x="15" y="8.02" width="2" height="0.5"/><rect class="cls-3" x="21" y="8.02" width="2" height="0.5"/><rect class="cls-3" x="21" y="14.02" width="2" height="0.5"/><rect class="cls-3" x="24" y="11.02" width="2" height="0.5"/><rect class="cls-3" x="24" y="5.02" width="2" height="0.5"/><rect class="cls-3" x="30" y="5.02" width="2" height="0.5"/><rect class="cls-3" x="36" y="5.02" width="2" height="0.5"/><rect class="cls-3" x="30" y="11.02" width="2" height="0.5"/><rect class="cls-3" x="30" y="17.02" width="2" height="0.5"/><rect class="cls-3" x="36" y="17.02" width="2" height="0.5"/><rect class="cls-3" x="42" y="17.02" width="2" height="0.5"/><rect class="cls-3" x="36" y="11.02" width="2" height="0.5"/><rect class="cls-3" x="33" y="8.02" width="2" height="0.5"/><rect class="cls-3" x="39" y="8.02" width="2" height="0.5"/><rect class="cls-3" x="42" y="5.02" width="2" height="0.5"/><rect class="cls-3" x="39" y="14.02" width="2" height="0.5"/><rect class="cls-3" x="33" y="14.02" width="2" height="0.5"/><rect class="cls-3" x="24" y="17.02" width="2" height="0.5"/><rect class="cls-3" x="27" y="8.02" width="2" height="0.5"/><rect class="cls-3" x="27" y="14.02" width="2" height="0.5"/></g></svg>